<svg xmlns="http://www.w3.org/2000/svg" viewBox="0 0 87.985901 78.000084" width="33" height="29"><path fill="#fff" style="marker:none" d="M2 0a2 2 0 1 0 0 4h10.375l10.531 49.813A2.002 2.002 0 0 0 25 56h50a2 2 0 1 0 0-4H26.625l-1.688-8H79a2 2 0 0 0 1.937-1.563l7-30A2 2 0 0 0 86 10H17.75l-1.781-8.437A2 2 0 0 0 14 0H2zm16.594 14H83.5l-6.094 26H24.094l-5.5-26zM36 60c-4.947 0-9 4.053-9 9s4.053 9 9 9 9-4.053 9-9-4.053-9-9-9zm28 0c-4.947 0-9 4.053-9 9s4.053 9 9 9 9-4.053 9-9-4.053-9-9-9zm-28 4c2.785 0 5 2.215 5 5s-2.215 5-5 5a4.97 4.97 0 0 1-5-5c0-2.785 2.215-5 5-5zm28 0c2.785 0 5 2.215 5 5s-2.215 5-5 5a4.97 4.97 0 0 1-5-5c0-2.785 2.215-5 5-5z" overflow="visible" color="#fff"/></svg>